<?xml version="1.0" standalone="no"?>
<!DOCTYPE svg PUBLIC "-//W3C//DTD SVG 20010904//EN"
 "http://www.w3.org/TR/2001/REC-SVG-20010904/DTD/svg10.dtd">
<svg version="1.0" xmlns="http://www.w3.org/2000/svg"
 width="1024.000000pt" height="1024.000000pt" viewBox="0 0 1024.000000 1024.000000"
 preserveAspectRatio="xMidYMid meet">
<metadata>
Created by potrace 1.11, written by Peter Selinger 2001-2013
</metadata>
<g transform="translate(0.000000,1024.000000) scale(0.100000,-0.100000)"
fill="#000000" stroke="none">
<path d="M8210 8333 c-269 -9 -750 -67 -979 -118 -768 -171 -1443 -457 -2076
-878 -128 -85 -445 -320 -440 -325 2 -2 -27 -30 -65 -63 -88 -75 -92 -84 -33
-60 153 60 409 120 598 140 338 37 649 33 858 -10 105 -21 271 -76 308 -103
28 -19 23 -19 -61 -1 -103 23 -122 16 -35 -11 45 -15 87 -35 96 -46 13 -16 17
-18 21 -7 3 8 10 -3 18 -25 46 -140 -67 -364 -278 -555 -203 -183 -389 -318
-617 -447 -66 -37 -183 -103 -260 -148 -311 -178 -446 -252 -570 -311 -437
-211 -575 -275 -586 -275 -7 0 -63 -25 -124 -55 -62 -30 -117 -55 -122 -55
-13 0 -133 -49 -477 -194 -160 -68 -311 -130 -335 -140 l-44 -17 6 33 c5 30 4
29 -15 -12 -24 -55 -168 -487 -168 -507 0 -8 -5 -11 -11 -7 -8 4 -9 -1 -4 -16
5 -16 4 -20 -4 -15 -8 5 -10 -2 -6 -22 5 -22 4 -25 -5 -13 -9 12 -10 9 -5 -13
3 -17 2 -26 -4 -23 -13 8 -66 -221 -101 -434 -28 -172 -61 -427 -81 -625 -16
-151 -16 -702 -2 -815 7 -52 20 -169 28 -260 29 -311 94 -665 165 -900 158
-524 172 -565 249 -729 43 -91 88 -190 101 -218 l22 -53 3534 0 3534 0 0 3973
0 3972 -122 58 c-248 118 -770 249 -1204 302 -122 15 -487 36 -568 33 -28 -1
-89 -3 -136 -5z"/>
</g>
</svg>
